<?xml version="1.0" standalone="no"?>
<!DOCTYPE svg PUBLIC "-//W3C//DTD SVG 20010904//EN"
 "http://www.w3.org/TR/2001/REC-SVG-20010904/DTD/svg10.dtd">
<svg version="1.0" xmlns="http://www.w3.org/2000/svg"
 width="500.000000pt" height="500.000000pt" viewBox="0 0 500.000000 500.000000"
 preserveAspectRatio="xMidYMid meet">
<metadata>
Created by potrace 1.14, written by Peter Selinger 2001-2017
</metadata>
<g transform="translate(0.000000,500.000000) scale(0.100000,-0.100000)"
fill="#000000" stroke="none">
<path d="M0 2500 l0 -2500 2500 0 2500 0 0 2500 0 2500 -2500 0 -2500 0 0
-2500z m3540 959 c195 -31 378 -141 511 -308 60 -74 146 -217 137 -226 -2 -3
-85 -26 -184 -53 -121 -33 -181 -45 -185 -38 -4 6 -12 41 -18 79 -15 84 -64
226 -102 294 -93 163 -233 238 -398 213 -196 -31 -341 -178 -426 -432 -18 -57
-37 -127 -41 -155 l-7 -53 -208 0 -208 0 15 53 c9 28 39 96 67 150 55 106 159
229 251 296 224 164 500 226 796 180z m-1824 -52 c295 -53 449 -161 498 -352
16 -61 21 -171 10 -237 l-7 -38 -198 0 -199 0 6 88 c20 284 -100 463 -336 501
-36 6 -111 11 -167 11 l-103 0 0 -300 0 -300 -199 0 -198 0 -7 263 c-3 144 -9
291 -12 326 l-7 63 414 -5 c320 -3 435 -8 505 -20z m-492 -1459 c4 -167 9
-327 12 -355 l6 -53 -222 0 -222 0 6 63 c3 34 9 194 12 355 l7 292 197 0 197
0 7 -302z m1611 275 c40 -188 111 -330 220 -439 117 -118 217 -161 395 -171
132 -6 225 12 336 67 177 87 327 279 400 513 15 48 21 57 41 57 13 0 23 -2 23
-4 0 -3 -14 -44 -31 -93 -124 -355 -328 -562 -624 -634 -72 -18 -119 -22 -230
-22 -284 1 -502 80 -682 247 -117 109 -194 230 -248 390 -42 126 -59 116 185
116 l210 0 5 -27z"/>
</g>
</svg>
